<svg width="414" height="354" viewBox="0 0 414 354" fill="none" xmlns="http://www.w3.org/2000/svg">
<mask id="path-1-outside-1_186_176" maskUnits="userSpaceOnUse" x="266.516" y="-0.783936" width="26" height="115" fill="black">
<rect fill="white" x="266.516" y="-0.783936" width="26" height="115"/>
<path d="M283.056 112.163C282.804 112.199 282.548 112.185 282.302 112.122C282.055 112.059 281.824 111.948 281.621 111.796C281.417 111.644 281.246 111.453 281.117 111.235C280.987 111.017 280.902 110.775 280.867 110.524L279.432 100.49C277.603 87.6846 275.881 74.992 274.364 63.1371C272.847 51.2822 271.564 40.4974 270.589 31.3985C269.614 22.2996 268.965 15.0649 268.681 10.1075C268.396 5.1502 268.481 2.56735 268.93 2.50649L270.929 2.21671C271.839 2.12288 274.176 12.2872 277.426 30.4772C280.676 48.6673 284.573 73.3957 288.261 99.2314L289.697 109.274C289.732 109.525 289.718 109.781 289.655 110.026C289.592 110.272 289.481 110.503 289.328 110.705C289.176 110.908 288.984 111.079 288.765 111.208C288.546 111.337 288.304 111.421 288.052 111.457L283.056 112.163Z"/>
</mask>
<path d="M283.056 112.163C282.804 112.199 282.548 112.185 282.302 112.122C282.055 112.059 281.824 111.948 281.621 111.796C281.417 111.644 281.246 111.453 281.117 111.235C280.987 111.017 280.902 110.775 280.867 110.524L279.432 100.49C277.603 87.6846 275.881 74.992 274.364 63.1371C272.847 51.2822 271.564 40.4974 270.589 31.3985C269.614 22.2996 268.965 15.0649 268.681 10.1075C268.396 5.1502 268.481 2.56735 268.93 2.50649L270.929 2.21671C271.839 2.12288 274.176 12.2872 277.426 30.4772C280.676 48.6673 284.573 73.3957 288.261 99.2314L289.697 109.274C289.732 109.525 289.718 109.781 289.655 110.026C289.592 110.272 289.481 110.503 289.328 110.705C289.176 110.908 288.984 111.079 288.765 111.208C288.546 111.337 288.304 111.421 288.052 111.457L283.056 112.163Z" fill="#202020"/>
<path d="M283.056 112.163C282.804 112.199 282.548 112.185 282.302 112.122C282.055 112.059 281.824 111.948 281.621 111.796C281.417 111.644 281.246 111.453 281.117 111.235C280.987 111.017 280.902 110.775 280.867 110.524L279.432 100.49C277.603 87.6846 275.881 74.992 274.364 63.1371C272.847 51.2822 271.564 40.4974 270.589 31.3985C269.614 22.2996 268.965 15.0649 268.681 10.1075C268.396 5.1502 268.481 2.56735 268.93 2.50649L270.929 2.21671C271.839 2.12288 274.176 12.2872 277.426 30.4772C280.676 48.6673 284.573 73.3957 288.261 99.2314L289.697 109.274C289.732 109.525 289.718 109.781 289.655 110.026C289.592 110.272 289.481 110.503 289.328 110.705C289.176 110.908 288.984 111.079 288.765 111.208C288.546 111.337 288.304 111.421 288.052 111.457L283.056 112.163Z" stroke="#202020" stroke-width="4" mask="url(#path-1-outside-1_186_176)"/>
<mask id="path-2-outside-2_186_176" maskUnits="userSpaceOnUse" x="126.841" y="-0.60376" width="26" height="115" fill="black">
<rect fill="white" x="126.841" y="-0.60376" width="26" height="115"/>
<path d="M130.67 111.511C130.393 111.472 130.126 111.379 129.886 111.238C129.645 111.096 129.434 110.908 129.266 110.685C129.099 110.462 128.976 110.209 128.907 109.939C128.838 109.668 128.822 109.387 128.862 109.111L131.851 88.1563C133.469 76.8241 135.165 65.6163 136.843 55.1731C138.522 44.7298 140.149 35.2557 141.632 27.292C143.115 19.3282 144.425 13.0307 145.487 8.75937C146.548 4.488 147.342 2.32637 147.821 2.39796L149.401 2.62436C150.369 2.76653 150 11.9898 148.374 28.2656C146.749 44.5414 144.001 66.5371 140.735 89.4151L137.746 110.37C137.707 110.646 137.614 110.912 137.472 111.152C137.33 111.392 137.142 111.602 136.918 111.769C136.694 111.937 136.44 112.058 136.169 112.128C135.898 112.197 135.616 112.212 135.339 112.172L130.67 111.511Z"/>
</mask>
<path d="M130.67 111.511C130.393 111.472 130.126 111.379 129.886 111.238C129.645 111.096 129.434 110.908 129.266 110.685C129.099 110.462 128.976 110.209 128.907 109.939C128.838 109.668 128.822 109.387 128.862 109.111L131.851 88.1563C133.469 76.8241 135.165 65.6163 136.843 55.1731C138.522 44.7298 140.149 35.2557 141.632 27.292C143.115 19.3282 144.425 13.0307 145.487 8.75937C146.548 4.488 147.342 2.32637 147.821 2.39796L149.401 2.62436C150.369 2.76653 150 11.9898 148.374 28.2656C146.749 44.5414 144.001 66.5371 140.735 89.4151L137.746 110.37C137.707 110.646 137.614 110.912 137.472 111.152C137.33 111.392 137.142 111.602 136.918 111.769C136.694 111.937 136.44 112.058 136.169 112.128C135.898 112.197 135.616 112.212 135.339 112.172L130.67 111.511Z" fill="#202020"/>
<path d="M130.67 111.511C130.393 111.472 130.126 111.379 129.886 111.238C129.645 111.096 129.434 110.908 129.266 110.685C129.099 110.462 128.976 110.209 128.907 109.939C128.838 109.668 128.822 109.387 128.862 109.111L131.851 88.1563C133.469 76.8241 135.165 65.6163 136.843 55.1731C138.522 44.7298 140.149 35.2557 141.632 27.292C143.115 19.3282 144.425 13.0307 145.487 8.75937C146.548 4.488 147.342 2.32637 147.821 2.39796L149.401 2.62436C150.369 2.76653 150 11.9898 148.374 28.2656C146.749 44.5414 144.001 66.5371 140.735 89.4151L137.746 110.37C137.707 110.646 137.614 110.912 137.472 111.152C137.33 111.392 137.142 111.602 136.918 111.769C136.694 111.937 136.44 112.058 136.169 112.128C135.898 112.197 135.616 112.212 135.339 112.172L130.67 111.511Z" stroke="#202020" stroke-width="4" mask="url(#path-2-outside-2_186_176)"/>
<path d="M113.047 109.7C113.002 110.153 112.788 110.573 112.448 110.879C112.107 111.185 111.664 111.355 111.203 111.357C75.1449 111.52 39.2869 111.553 3.62869 111.457C1.5454 111.457 0.537065 110.313 0.603682 108.025C0.812617 101.269 7.07157 93.5263 11.977 89.5055C15.1625 86.8854 19.002 85.5693 23.4956 85.5572C47.2597 85.4787 71.484 85.4727 96.1685 85.5391C98.3608 85.5451 99.7295 86.4839 100.275 88.3554C102.173 94.8575 103.59 99.4125 108.296 104.339C108.889 104.961 110.213 106.198 112.266 108.052C112.847 108.577 113.107 109.126 113.047 109.7Z" fill="#202020"/>
<path d="M300.779 109.809C300.719 109.235 300.979 108.686 301.56 108.16C303.607 106.301 304.927 105.06 305.521 104.438C310.227 99.5121 311.635 94.948 313.524 88.4459C314.069 86.5744 315.438 85.6326 317.63 85.6205C342.321 85.5239 366.551 85.4998 390.321 85.5481C394.815 85.5541 398.654 86.8672 401.84 89.4873C406.754 93.4991 413.022 101.233 413.24 107.997C413.313 110.285 412.308 111.43 410.224 111.43C374.554 111.568 338.687 111.58 302.623 111.466C302.162 111.464 301.719 111.293 301.378 110.987C301.037 110.681 300.824 110.261 300.779 109.809Z" fill="#202020"/>
<path d="M206.913 118.113C296.509 118.104 356.256 117.959 385.961 117.896C387.868 117.896 389.249 118.819 390.103 120.667C392.968 126.855 392.447 132.599 388.541 137.9C387.305 139.575 385.706 139.919 383.553 139.919C266.023 139.871 207.143 139.847 206.913 139.847C206.683 139.847 147.803 139.877 30.2723 139.937C28.1194 139.946 26.5206 139.602 25.2851 137.927C21.379 132.626 20.8581 126.882 23.7227 120.694C24.5766 118.846 25.9573 117.923 27.865 117.923C57.5701 117.986 117.316 118.122 206.913 118.113Z" fill="#202020"/>
<path d="M383.481 145.959H30.5085C25.9179 145.959 22.1965 149.669 22.1965 154.246V160.44C22.1965 165.016 25.9179 168.726 30.5085 168.726H383.481C388.071 168.726 391.793 165.016 391.793 160.44V154.246C391.793 149.669 388.071 145.959 383.481 145.959Z" fill="#202020"/>
<path d="M383.853 174.92H30.0453C25.7507 174.92 22.2693 178.391 22.2693 182.672V189.264C22.2693 193.545 25.7507 197.016 30.0453 197.016H383.853C388.148 197.016 391.629 193.545 391.629 189.264V182.672C391.629 178.391 388.148 174.92 383.853 174.92Z" fill="#202020"/>
<path d="M112.947 205.021C113.008 205.595 112.747 206.144 112.166 206.669C110.119 208.523 108.799 209.76 108.205 210.382C103.518 215.309 102.11 219.864 100.22 226.357C99.6751 228.228 98.3094 229.167 96.1232 229.173C71.4689 229.276 47.2718 229.3 23.532 229.245C19.0445 229.239 15.208 227.932 12.0225 225.324C7.11704 221.313 0.858087 213.588 0.640068 206.841C0.573451 204.553 1.57876 203.409 3.65599 203.409C39.2718 203.264 75.0874 203.252 111.103 203.373C111.562 203.375 112.005 203.544 112.345 203.848C112.685 204.152 112.9 204.57 112.947 205.021Z" fill="#202020"/>
<path d="M300.87 205.003C300.915 204.549 301.13 204.128 301.472 203.821C301.815 203.515 302.261 203.346 302.723 203.346C338.757 203.237 374.594 203.259 410.234 203.409C412.317 203.409 413.325 204.554 413.259 206.842C413.041 213.588 406.772 221.322 401.858 225.334C398.672 227.948 394.833 229.258 390.339 229.264C366.587 229.306 342.378 229.276 317.712 229.173C315.52 229.167 314.151 228.228 313.606 226.357C311.716 219.855 310.308 215.3 305.612 210.364C305.018 209.742 303.698 208.505 301.651 206.651C301.07 206.126 300.809 205.577 300.87 205.003Z" fill="#202020"/>
<mask id="path-10-outside-3_186_176" maskUnits="userSpaceOnUse" x="54.4329" y="237.591" width="35" height="72" fill="black">
<rect fill="white" x="54.4329" y="237.591" width="35" height="72"/>
<path d="M69.5066 239.732C69.692 239.625 69.9058 239.576 70.1194 239.594C70.333 239.612 70.5362 239.695 70.702 239.831C70.8678 239.968 70.9882 240.152 71.0473 240.36C71.1064 240.567 71.1013 240.787 71.0327 240.991C66.2 255.082 66.1848 268.792 70.9873 282.122C74.2212 291.069 79.6172 298.042 86.0942 304.852C86.4454 305.227 86.6422 305.586 86.6846 305.93C86.7032 306.083 86.6839 306.238 86.6284 306.381C86.573 306.525 86.483 306.653 86.3665 306.754C86.25 306.855 86.1104 306.926 85.96 306.961C85.8096 306.995 85.6529 306.993 85.5037 306.953C84.0502 306.567 82.621 305.939 81.216 305.07C77.3007 302.643 72.904 299.518 69.8518 295.778C58.6692 282.032 54.2725 264.237 59.8411 247.276C60.3556 245.702 61.4333 244.376 62.8661 243.554L69.5066 239.732Z"/>
</mask>
<path d="M69.5066 239.732C69.692 239.625 69.9058 239.576 70.1194 239.594C70.333 239.612 70.5362 239.695 70.702 239.831C70.8678 239.968 70.9882 240.152 71.0473 240.36C71.1064 240.567 71.1013 240.787 71.0327 240.991C66.2 255.082 66.1848 268.792 70.9873 282.122C74.2212 291.069 79.6172 298.042 86.0942 304.852C86.4454 305.227 86.6422 305.586 86.6846 305.93C86.7032 306.083 86.6839 306.238 86.6284 306.381C86.573 306.525 86.483 306.653 86.3665 306.754C86.25 306.855 86.1104 306.926 85.96 306.961C85.8096 306.995 85.6529 306.993 85.5037 306.953C84.0502 306.567 82.621 305.939 81.216 305.07C77.3007 302.643 72.904 299.518 69.8518 295.778C58.6692 282.032 54.2725 264.237 59.8411 247.276C60.3556 245.702 61.4333 244.376 62.8661 243.554L69.5066 239.732Z" fill="#202020"/>
<path d="M69.5066 239.732C69.692 239.625 69.9058 239.576 70.1194 239.594C70.333 239.612 70.5362 239.695 70.702 239.831C70.8678 239.968 70.9882 240.152 71.0473 240.36C71.1064 240.567 71.1013 240.787 71.0327 240.991C66.2 255.082 66.1848 268.792 70.9873 282.122C74.2212 291.069 79.6172 298.042 86.0942 304.852C86.4454 305.227 86.6422 305.586 86.6846 305.93C86.7032 306.083 86.6839 306.238 86.6284 306.381C86.573 306.525 86.483 306.653 86.3665 306.754C86.25 306.855 86.1104 306.926 85.96 306.961C85.8096 306.995 85.6529 306.993 85.5037 306.953C84.0502 306.567 82.621 305.939 81.216 305.07C77.3007 302.643 72.904 299.518 69.8518 295.778C58.6692 282.032 54.2725 264.237 59.8411 247.276C60.3556 245.702 61.4333 244.376 62.8661 243.554L69.5066 239.732Z" stroke="#202020" stroke-width="4" mask="url(#path-10-outside-3_186_176)"/>
<mask id="path-11-outside-4_186_176" maskUnits="userSpaceOnUse" x="327.46" y="237.73" width="34" height="72" fill="black">
<rect fill="white" x="327.46" y="237.73" width="34" height="72"/>
<path d="M346.49 239.868L353.113 243.662C354.54 244.48 355.615 245.799 356.129 247.366C361.697 264.264 357.346 281.996 346.218 295.706C343.184 299.437 338.805 302.552 334.908 304.979C333.509 305.843 332.086 306.467 330.639 306.854C330.491 306.893 330.335 306.896 330.186 306.862C330.036 306.828 329.898 306.758 329.782 306.657C329.666 306.557 329.577 306.43 329.522 306.288C329.467 306.145 329.448 305.991 329.467 305.84C329.509 305.495 329.703 305.136 330.048 304.762C336.498 297.97 341.857 291.015 345.073 282.104C349.839 268.816 349.806 255.157 344.973 241.127C344.903 240.925 344.895 240.706 344.953 240.5C345.01 240.294 345.129 240.11 345.294 239.973C345.459 239.836 345.662 239.753 345.876 239.734C346.089 239.715 346.304 239.762 346.49 239.868Z"/>
</mask>
<path d="M346.49 239.868L353.113 243.662C354.54 244.48 355.615 245.799 356.129 247.366C361.697 264.264 357.346 281.996 346.218 295.706C343.184 299.437 338.805 302.552 334.908 304.979C333.509 305.843 332.086 306.467 330.639 306.854C330.491 306.893 330.335 306.896 330.186 306.862C330.036 306.828 329.898 306.758 329.782 306.657C329.666 306.557 329.577 306.43 329.522 306.288C329.467 306.145 329.448 305.991 329.467 305.84C329.509 305.495 329.703 305.136 330.048 304.762C336.498 297.97 341.857 291.015 345.073 282.104C349.839 268.816 349.806 255.157 344.973 241.127C344.903 240.925 344.895 240.706 344.953 240.5C345.01 240.294 345.129 240.11 345.294 239.973C345.459 239.836 345.662 239.753 345.876 239.734C346.089 239.715 346.304 239.762 346.49 239.868Z" fill="#202020"/>
<path d="M346.49 239.868L353.113 243.662C354.54 244.48 355.615 245.799 356.129 247.366C361.697 264.264 357.346 281.996 346.218 295.706C343.184 299.437 338.805 302.552 334.908 304.979C333.509 305.843 332.086 306.467 330.639 306.854C330.491 306.893 330.335 306.896 330.186 306.862C330.036 306.828 329.898 306.758 329.782 306.657C329.666 306.557 329.577 306.43 329.522 306.288C329.467 306.145 329.448 305.991 329.467 305.84C329.509 305.495 329.703 305.136 330.048 304.762C336.498 297.97 341.857 291.015 345.073 282.104C349.839 268.816 349.806 255.157 344.973 241.127C344.903 240.925 344.895 240.706 344.953 240.5C345.01 240.294 345.129 240.11 345.294 239.973C345.459 239.836 345.662 239.753 345.876 239.734C346.089 239.715 346.304 239.762 346.49 239.868Z" stroke="#202020" stroke-width="4" mask="url(#path-11-outside-4_186_176)"/>
<path d="M347.5 254L349 258.5M349 258.5L344.5 284.5L333.5 300L338.5 302L355 283L358 259.5L355 244.5L344.5 240.5L349 258.5Z" stroke="#202020"/>
<mask id="path-13-outside-5_186_176" maskUnits="userSpaceOnUse" x="98.5127" y="293.199" width="88" height="60" fill="black">
<rect fill="white" x="98.5127" y="293.199" width="88" height="60"/>
<path d="M183.503 350.838C182.964 350.989 182.289 350.907 181.478 350.593C171.116 346.554 162.147 340.925 154.57 333.704C151.7 330.963 148.327 327.462 144.451 323.199C141.18 319.595 138.416 317.09 136.157 315.683C132.208 313.226 127.951 311.493 123.385 310.485C119.124 309.543 100.402 305.504 101.565 299.935C101.952 298.039 103.179 296.826 105.244 296.295C113.101 294.275 122.676 295.135 130.361 298.151C139.996 301.918 147.754 308.665 153.635 318.391C156.66 323.39 159.076 328.189 162.564 332.472C166.471 337.254 169.314 340.333 171.094 341.709C174.843 344.601 179.007 347.433 183.585 350.204C183.643 350.24 183.69 350.293 183.72 350.355C183.749 350.417 183.76 350.485 183.752 350.553C183.743 350.62 183.715 350.683 183.671 350.733C183.627 350.784 183.568 350.82 183.503 350.838Z"/>
</mask>
<path d="M183.503 350.838C182.964 350.989 182.289 350.907 181.478 350.593C171.116 346.554 162.147 340.925 154.57 333.704C151.7 330.963 148.327 327.462 144.451 323.199C141.18 319.595 138.416 317.09 136.157 315.683C132.208 313.226 127.951 311.493 123.385 310.485C119.124 309.543 100.402 305.504 101.565 299.935C101.952 298.039 103.179 296.826 105.244 296.295C113.101 294.275 122.676 295.135 130.361 298.151C139.996 301.918 147.754 308.665 153.635 318.391C156.66 323.39 159.076 328.189 162.564 332.472C166.471 337.254 169.314 340.333 171.094 341.709C174.843 344.601 179.007 347.433 183.585 350.204C183.643 350.24 183.69 350.293 183.72 350.355C183.749 350.417 183.76 350.485 183.752 350.553C183.743 350.62 183.715 350.683 183.671 350.733C183.627 350.784 183.568 350.82 183.503 350.838Z" fill="#202020"/>
<path d="M183.503 350.838C182.964 350.989 182.289 350.907 181.478 350.593C171.116 346.554 162.147 340.925 154.57 333.704C151.7 330.963 148.327 327.462 144.451 323.199C141.18 319.595 138.416 317.09 136.157 315.683C132.208 313.226 127.951 311.493 123.385 310.485C119.124 309.543 100.402 305.504 101.565 299.935C101.952 298.039 103.179 296.826 105.244 296.295C113.101 294.275 122.676 295.135 130.361 298.151C139.996 301.918 147.754 308.665 153.635 318.391C156.66 323.39 159.076 328.189 162.564 332.472C166.471 337.254 169.314 340.333 171.094 341.709C174.843 344.601 179.007 347.433 183.585 350.204C183.643 350.24 183.69 350.293 183.72 350.355C183.749 350.417 183.76 350.485 183.752 350.553C183.743 350.62 183.715 350.683 183.671 350.733C183.627 350.784 183.568 350.82 183.503 350.838Z" stroke="#202020" stroke-width="4" mask="url(#path-13-outside-5_186_176)"/>
<mask id="path-14-outside-6_186_176" maskUnits="userSpaceOnUse" x="228.918" y="293.345" width="88" height="60" fill="black">
<rect fill="white" x="228.918" y="293.345" width="88" height="60"/>
<path d="M231.313 351.227C231.226 351.232 231.141 351.207 231.071 351.157C231.001 351.106 230.951 351.032 230.929 350.949C230.908 350.865 230.916 350.777 230.953 350.699C230.99 350.62 231.053 350.558 231.131 350.521C242.626 345.069 251.601 336.816 258.056 325.762C260.727 321.192 262.602 318.089 263.68 316.453C273.951 300.871 288.658 293.916 307.801 295.588C310.254 295.797 312.461 296.222 313.887 298.187C316.84 302.253 309.999 305.187 306.784 306.428C303.259 307.799 298.466 309.151 292.404 310.485C284.991 312.109 278.962 315.366 274.317 320.256C268.164 326.734 264.116 330.915 262.172 332.799C254.492 340.242 245.969 345.939 236.6 349.887C234.704 350.684 232.942 351.131 231.313 351.227Z"/>
</mask>
<path d="M231.313 351.227C231.226 351.232 231.141 351.207 231.071 351.157C231.001 351.106 230.951 351.032 230.929 350.949C230.908 350.865 230.916 350.777 230.953 350.699C230.99 350.62 231.053 350.558 231.131 350.521C242.626 345.069 251.601 336.816 258.056 325.762C260.727 321.192 262.602 318.089 263.68 316.453C273.951 300.871 288.658 293.916 307.801 295.588C310.254 295.797 312.461 296.222 313.887 298.187C316.84 302.253 309.999 305.187 306.784 306.428C303.259 307.799 298.466 309.151 292.404 310.485C284.991 312.109 278.962 315.366 274.317 320.256C268.164 326.734 264.116 330.915 262.172 332.799C254.492 340.242 245.969 345.939 236.6 349.887C234.704 350.684 232.942 351.131 231.313 351.227Z" fill="#202020"/>
<path d="M231.313 351.227C231.226 351.232 231.141 351.207 231.071 351.157C231.001 351.106 230.951 351.032 230.929 350.949C230.908 350.865 230.916 350.777 230.953 350.699C230.99 350.62 231.053 350.558 231.131 350.521C242.626 345.069 251.601 336.816 258.056 325.762C260.727 321.192 262.602 318.089 263.68 316.453C273.951 300.871 288.658 293.916 307.801 295.588C310.254 295.797 312.461 296.222 313.887 298.187C316.84 302.253 309.999 305.187 306.784 306.428C303.259 307.799 298.466 309.151 292.404 310.485C284.991 312.109 278.962 315.366 274.317 320.256C268.164 326.734 264.116 330.915 262.172 332.799C254.492 340.242 245.969 345.939 236.6 349.887C234.704 350.684 232.942 351.131 231.313 351.227Z" stroke="#202020" stroke-width="4" mask="url(#path-14-outside-6_186_176)"/>
</svg>
