<svg width="1147" height="300" viewBox="0 0 1147 300" fill="none" xmlns="http://www.w3.org/2000/svg">
<path d="M344.893 151.103C344.893 64.5205 407.845 2.20668 494.621 2.20668C581.396 2.20668 644.349 64.5205 644.349 151.103C644.349 237.686 579.725 300 494.621 300C409.516 300 344.893 238.224 344.893 151.103ZM494.621 249.848C548.195 249.848 587.972 210.673 587.972 151.103C587.972 91.5339 548.195 52.3591 494.621 52.3591C441.046 52.3591 401.27 93.2021 401.27 151.103C401.27 209.005 441.046 249.848 494.621 249.848Z" fill="url(#paint0_linear_242_115)"/>
<path d="M681.807 9.36403H736.514V69.4716H748.102C756.402 41.8662 782.92 4.41337 840.375 4.41337V63.4447H821.618C764.163 63.4447 737.107 104.234 737.107 150.027V292.897H681.861V9.36403H681.807Z" fill="url(#paint1_linear_242_115)"/>
<path d="M847.544 151.103C847.544 64.5205 910.55 2.20668 997.272 2.20668C1083.99 2.20668 1147 64.5205 1147 151.103C1147 237.686 1082.38 300 997.272 300C912.167 300 847.544 238.224 847.544 151.103ZM997.218 249.848C1050.79 249.848 1090.57 210.673 1090.57 151.103C1090.57 91.5339 1050.79 52.3591 997.218 52.3591C943.644 52.3591 903.867 93.2021 903.867 151.103C903.867 209.005 943.644 249.848 997.218 249.848Z" fill="url(#paint2_linear_242_115)"/>
<path d="M294.067 78.7264C275.58 41.3811 240.007 1.50672 172.527 1.50672C172.527 1.50672 116.419 -3.33632 79.3376 36.5919L30.7218 0L0 45.6322L42.3098 76.6277C42.3098 76.6277 6.89892 130.601 6.89892 192.861C6.89892 255.121 44.1962 297.793 100.088 297.793C155.98 297.793 187.78 253.022 187.78 200.663C187.78 148.305 135.93 86.2062 120.785 75.9281C120.785 75.9281 131.187 58.0089 170.479 58.0089C214.352 58.0089 253.589 102.081 254.937 143.946C256.554 193.506 254.721 243.444 254.721 293.058H313.362V165.255C313.362 135.336 307.325 105.525 294.067 78.7264ZM127.9 199.049C127.9 199.049 134.798 241.453 98.7947 241.453C62.791 241.453 62.791 192.861 62.791 192.861C62.791 152.986 83.9728 117.847 83.9728 117.847C118.953 147.444 127.9 199.103 127.9 199.103V199.049Z" fill="url(#paint3_linear_242_115)"/>
<defs>
<linearGradient id="paint0_linear_242_115" x1="-216.472" y1="-91.0115" x2="1147.78" y2="516.118" gradientUnits="userSpaceOnUse">
<stop stop-color="#00629A"/>
<stop offset="0.212754" stop-color="#375399"/>
<stop offset="0.487747" stop-color="#7F3F98"/>
<stop offset="0.804814" stop-color="#00619A"/>
</linearGradient>
<linearGradient id="paint1_linear_242_115" x1="-216.472" y1="-91.0115" x2="1147.78" y2="516.118" gradientUnits="userSpaceOnUse">
<stop stop-color="#00629A"/>
<stop offset="0.212754" stop-color="#375399"/>
<stop offset="0.487747" stop-color="#7F3F98"/>
<stop offset="0.804814" stop-color="#00619A"/>
</linearGradient>
<linearGradient id="paint2_linear_242_115" x1="-216.472" y1="-91.0115" x2="1147.78" y2="516.118" gradientUnits="userSpaceOnUse">
<stop stop-color="#00629A"/>
<stop offset="0.212754" stop-color="#375399"/>
<stop offset="0.487747" stop-color="#7F3F98"/>
<stop offset="0.804814" stop-color="#00619A"/>
</linearGradient>
<linearGradient id="paint3_linear_242_115" x1="-216.472" y1="-91.0115" x2="1147.78" y2="516.118" gradientUnits="userSpaceOnUse">
<stop stop-color="#00629A"/>
<stop offset="0.212754" stop-color="#375399"/>
<stop offset="0.487747" stop-color="#7F3F98"/>
<stop offset="0.804814" stop-color="#00619A"/>
</linearGradient>
</defs>
</svg>
