<svg width="1617" height="422" viewBox="0 0 1617 422" fill="none" xmlns="http://www.w3.org/2000/svg">
<path d="M485.939 212.514C485.939 90.7427 574.637 3.10352 696.9 3.10352C819.164 3.10352 907.861 90.7427 907.861 212.514C907.861 334.286 816.809 421.925 696.9 421.925C576.991 421.925 485.939 335.043 485.939 212.514ZM696.9 351.39C772.385 351.39 828.428 296.294 828.428 212.514C828.428 128.735 772.385 73.6387 696.9 73.6387C621.416 73.6387 565.372 131.081 565.372 212.514C565.372 293.948 621.416 351.39 696.9 351.39Z" fill="url(#paint0_linear_226_598)"/>
<path d="M960.639 13.1697H1037.72V97.706H1054.04C1065.74 58.8814 1103.1 6.20703 1184.05 6.20703V89.2296H1157.63C1076.67 89.2296 1038.55 146.596 1038.55 211.001V411.936H960.715V13.1697H960.639Z" fill="url(#paint1_linear_226_598)"/>
<path d="M1194.15 212.514C1194.15 90.7427 1282.93 3.10352 1405.12 3.10352C1527.3 3.10352 1616.08 90.7427 1616.08 212.514C1616.08 334.286 1525.02 421.925 1405.12 421.925C1285.21 421.925 1194.15 335.043 1194.15 212.514ZM1405.04 351.39C1480.52 351.39 1536.57 296.294 1536.57 212.514C1536.57 128.735 1480.52 73.6387 1405.04 73.6387C1329.56 73.6387 1273.51 131.081 1273.51 212.514C1273.51 293.948 1329.56 351.39 1405.04 351.39Z" fill="url(#paint2_linear_226_598)"/>
<path d="M414.328 110.722C388.28 58.1991 338.16 2.11908 243.083 2.11908C243.083 2.11908 164.03 -4.69226 111.783 51.4634L43.2857 0L0 64.1779L59.6128 107.77C59.6128 107.77 9.7203 183.679 9.7203 271.242C9.7203 358.806 62.2707 418.821 141.02 418.821C219.77 418.821 264.574 355.854 264.574 282.216C264.574 208.578 191.52 121.242 170.181 106.787C170.181 106.787 184.838 81.5847 240.198 81.5847C302.013 81.5847 357.297 143.568 359.195 202.448C361.474 272.151 358.892 342.383 358.892 412.161H441.514V232.418C441.514 190.339 433.009 148.411 414.328 110.722ZM180.205 279.946C180.205 279.946 189.926 339.583 139.198 339.583C88.4699 339.583 88.4699 271.242 88.4699 271.242C88.4699 215.163 118.314 165.742 118.314 165.742C167.599 207.367 180.205 280.022 180.205 280.022V279.946Z" fill="url(#paint3_linear_226_598)"/>
<defs>
<linearGradient id="paint0_linear_226_598" x1="-305" y1="-128" x2="1616.02" y2="728.455" gradientUnits="userSpaceOnUse">
<stop stop-color="#00629A"/>
<stop offset="0.212754" stop-color="#375399"/>
<stop offset="0.487747" stop-color="#7F3F98"/>
<stop offset="0.804814" stop-color="#00619A"/>
</linearGradient>
<linearGradient id="paint1_linear_226_598" x1="-305" y1="-128" x2="1616.02" y2="728.455" gradientUnits="userSpaceOnUse">
<stop stop-color="#00629A"/>
<stop offset="0.212754" stop-color="#375399"/>
<stop offset="0.487747" stop-color="#7F3F98"/>
<stop offset="0.804814" stop-color="#00619A"/>
</linearGradient>
<linearGradient id="paint2_linear_226_598" x1="-305" y1="-128" x2="1616.02" y2="728.455" gradientUnits="userSpaceOnUse">
<stop stop-color="#00629A"/>
<stop offset="0.212754" stop-color="#375399"/>
<stop offset="0.487747" stop-color="#7F3F98"/>
<stop offset="0.804814" stop-color="#00619A"/>
</linearGradient>
<linearGradient id="paint3_linear_226_598" x1="-305" y1="-128" x2="1616.02" y2="728.455" gradientUnits="userSpaceOnUse">
<stop stop-color="#00629A"/>
<stop offset="0.212754" stop-color="#375399"/>
<stop offset="0.487747" stop-color="#7F3F98"/>
<stop offset="0.804814" stop-color="#00619A"/>
</linearGradient>
</defs>
</svg>
