<svg width="347" height="338" viewBox="0 0 347 338" fill="none" xmlns="http://www.w3.org/2000/svg">
<mask id="path-1-outside-1_186_175" maskUnits="userSpaceOnUse" x="242.585" y="0.367188" width="24" height="115" fill="black">
<rect fill="white" x="242.585" y="0.367188" width="24" height="115"/>
<path d="M262.14 112.11C261.86 111.883 261.677 111.633 261.59 111.36C253.783 86.9601 248.457 61.0467 245.61 33.6201C244.64 24.2701 244.08 13.2401 245.22 3.38006C245.242 3.18113 245.317 2.9916 245.435 2.8305C245.554 2.66941 245.713 2.54244 245.897 2.46237C246.08 2.3823 246.282 2.35194 246.481 2.37436C246.679 2.39677 246.869 2.47116 247.03 2.59006C248.06 3.35006 247.96 4.24006 248.21 5.36006C255.63 39.0501 262.22 75.8701 264.29 110.75C264.31 111.117 264.267 111.427 264.16 111.68C264.081 111.86 263.96 112.018 263.807 112.141C263.653 112.265 263.472 112.351 263.276 112.392C263.08 112.434 262.876 112.43 262.679 112.381C262.482 112.332 262.297 112.239 262.14 112.11Z"/>
</mask>
<path d="M262.14 112.11C261.86 111.883 261.677 111.633 261.59 111.36C253.783 86.9601 248.457 61.0467 245.61 33.6201C244.64 24.2701 244.08 13.2401 245.22 3.38006C245.242 3.18113 245.317 2.9916 245.435 2.8305C245.554 2.66941 245.713 2.54244 245.897 2.46237C246.08 2.3823 246.282 2.35194 246.481 2.37436C246.679 2.39677 246.869 2.47116 247.03 2.59006C248.06 3.35006 247.96 4.24006 248.21 5.36006C255.63 39.0501 262.22 75.8701 264.29 110.75C264.31 111.117 264.267 111.427 264.16 111.68C264.081 111.86 263.96 112.018 263.807 112.141C263.653 112.265 263.472 112.351 263.276 112.392C263.08 112.434 262.876 112.43 262.679 112.381C262.482 112.332 262.297 112.239 262.14 112.11Z" fill="#202020"/>
<path d="M262.14 112.11C261.86 111.883 261.677 111.633 261.59 111.36C253.783 86.9601 248.457 61.0467 245.61 33.6201C244.64 24.2701 244.08 13.2401 245.22 3.38006C245.242 3.18113 245.317 2.9916 245.435 2.8305C245.554 2.66941 245.713 2.54244 245.897 2.46237C246.08 2.3823 246.282 2.35194 246.481 2.37436C246.679 2.39677 246.869 2.47116 247.03 2.59006C248.06 3.35006 247.96 4.24006 248.21 5.36006C255.63 39.0501 262.22 75.8701 264.29 110.75C264.31 111.117 264.267 111.427 264.16 111.68C264.081 111.86 263.96 112.018 263.807 112.141C263.653 112.265 263.472 112.351 263.276 112.392C263.08 112.434 262.876 112.43 262.679 112.381C262.482 112.332 262.297 112.239 262.14 112.11Z" stroke="#202020" stroke-width="4" mask="url(#path-1-outside-1_186_175)"/>
<mask id="path-2-outside-2_186_175" maskUnits="userSpaceOnUse" x="87.3053" y="0.357178" width="24" height="114" fill="black">
<rect fill="white" x="87.3053" y="0.357178" width="24" height="114"/>
<path d="M91.46 112.03C91.3027 112.159 91.1182 112.252 90.9211 112.301C90.724 112.35 90.5196 112.354 90.3239 112.312C90.1282 112.271 89.9466 112.185 89.7932 112.061C89.6399 111.938 89.519 111.78 89.44 111.6C89.3334 111.347 89.29 111.037 89.31 110.67C91.39 75.8101 97.98 39.0101 105.4 5.35005C105.66 4.23005 105.56 3.34005 106.58 2.58005C106.741 2.46116 106.931 2.38676 107.129 2.36435C107.328 2.34193 107.53 2.37229 107.713 2.45236C107.897 2.53243 108.056 2.6594 108.175 2.82049C108.293 2.98159 108.368 3.17113 108.39 3.37005C109.53 13.2201 108.97 24.25 108 33.59C105.147 61.0034 99.8167 86.9001 92.01 111.28C91.9234 111.553 91.74 111.803 91.46 112.03Z"/>
</mask>
<path d="M91.46 112.03C91.3027 112.159 91.1182 112.252 90.9211 112.301C90.724 112.35 90.5196 112.354 90.3239 112.312C90.1282 112.271 89.9466 112.185 89.7932 112.061C89.6399 111.938 89.519 111.78 89.44 111.6C89.3334 111.347 89.29 111.037 89.31 110.67C91.39 75.8101 97.98 39.0101 105.4 5.35005C105.66 4.23005 105.56 3.34005 106.58 2.58005C106.741 2.46116 106.931 2.38676 107.129 2.36435C107.328 2.34193 107.53 2.37229 107.713 2.45236C107.897 2.53243 108.056 2.6594 108.175 2.82049C108.293 2.98159 108.368 3.17113 108.39 3.37005C109.53 13.2201 108.97 24.25 108 33.59C105.147 61.0034 99.8167 86.9001 92.01 111.28C91.9234 111.553 91.74 111.803 91.46 112.03Z" fill="#202020"/>
<path d="M91.46 112.03C91.3027 112.159 91.1182 112.252 90.9211 112.301C90.724 112.35 90.5196 112.354 90.3239 112.312C90.1282 112.271 89.9466 112.185 89.7932 112.061C89.6399 111.938 89.519 111.78 89.44 111.6C89.3334 111.347 89.29 111.037 89.31 110.67C91.39 75.8101 97.98 39.0101 105.4 5.35005C105.66 4.23005 105.56 3.34005 106.58 2.58005C106.741 2.46116 106.931 2.38676 107.129 2.36435C107.328 2.34193 107.53 2.37229 107.713 2.45236C107.897 2.53243 108.056 2.6594 108.175 2.82049C108.293 2.98159 108.368 3.17113 108.39 3.37005C109.53 13.2201 108.97 24.25 108 33.59C105.147 61.0034 99.8167 86.9001 92.01 111.28C91.9234 111.553 91.74 111.803 91.46 112.03Z" stroke="#202020" stroke-width="4" mask="url(#path-2-outside-2_186_175)"/>
<mask id="path-3-outside-3_186_175" maskUnits="userSpaceOnUse" x="286.44" y="70.8201" width="29" height="42" fill="black">
<rect fill="white" x="286.44" y="70.8201" width="29" height="42"/>
<path d="M288.44 91.9101C288.44 91.4034 288.65 91.0901 289.07 90.9701C292.23 90.1001 297.93 90.7801 298.48 85.9501C298.94 81.8167 299.343 77.7467 299.69 73.7401C299.743 73.1267 300.09 72.8201 300.73 72.8201C301.397 72.8201 301.757 73.1267 301.81 73.7401C302.157 77.7467 302.563 81.8167 303.03 85.9501C303.58 90.7801 309.29 90.0901 312.45 90.9701C312.863 91.0834 313.07 91.3967 313.07 91.9101C313.07 92.3834 312.863 92.6767 312.45 92.7901C309.29 93.6701 303.58 92.9801 303.04 97.8201C302.573 101.947 302.167 106.017 301.82 110.03C301.767 110.643 301.42 110.95 300.78 110.95C300.113 110.95 299.753 110.643 299.7 110.03C299.353 106.017 298.947 101.947 298.48 97.8201C297.94 92.9801 292.23 93.6801 289.07 92.8001C288.65 92.6867 288.44 92.3901 288.44 91.9101Z"/>
</mask>
<path d="M288.44 91.9101C288.44 91.4034 288.65 91.0901 289.07 90.9701C292.23 90.1001 297.93 90.7801 298.48 85.9501C298.94 81.8167 299.343 77.7467 299.69 73.7401C299.743 73.1267 300.09 72.8201 300.73 72.8201C301.397 72.8201 301.757 73.1267 301.81 73.7401C302.157 77.7467 302.563 81.8167 303.03 85.9501C303.58 90.7801 309.29 90.0901 312.45 90.9701C312.863 91.0834 313.07 91.3967 313.07 91.9101C313.07 92.3834 312.863 92.6767 312.45 92.7901C309.29 93.6701 303.58 92.9801 303.04 97.8201C302.573 101.947 302.167 106.017 301.82 110.03C301.767 110.643 301.42 110.95 300.78 110.95C300.113 110.95 299.753 110.643 299.7 110.03C299.353 106.017 298.947 101.947 298.48 97.8201C297.94 92.9801 292.23 93.6801 289.07 92.8001C288.65 92.6867 288.44 92.3901 288.44 91.9101Z" fill="#202020"/>
<path d="M288.44 91.9101C288.44 91.4034 288.65 91.0901 289.07 90.9701C292.23 90.1001 297.93 90.7801 298.48 85.9501C298.94 81.8167 299.343 77.7467 299.69 73.7401C299.743 73.1267 300.09 72.8201 300.73 72.8201C301.397 72.8201 301.757 73.1267 301.81 73.7401C302.157 77.7467 302.563 81.8167 303.03 85.9501C303.58 90.7801 309.29 90.0901 312.45 90.9701C312.863 91.0834 313.07 91.3967 313.07 91.9101C313.07 92.3834 312.863 92.6767 312.45 92.7901C309.29 93.6701 303.58 92.9801 303.04 97.8201C302.573 101.947 302.167 106.017 301.82 110.03C301.767 110.643 301.42 110.95 300.78 110.95C300.113 110.95 299.753 110.643 299.7 110.03C299.353 106.017 298.947 101.947 298.48 97.8201C297.94 92.9801 292.23 93.6801 289.07 92.8001C288.65 92.6867 288.44 92.3901 288.44 91.9101Z" stroke="#202020" stroke-width="3" mask="url(#path-3-outside-3_186_175)"/>
<mask id="path-4-outside-4_186_175" maskUnits="userSpaceOnUse" x="8.90002" y="73.8401" width="66" height="100" fill="black">
<rect fill="white" x="8.90002" y="73.8401" width="66" height="100"/>
<path d="M41.81 75.8401C42.8567 75.8401 43.6867 76.3801 44.3 77.4601C44.4633 77.7523 44.5653 78.072 44.6 78.4001C45.9134 91.9401 46.79 101.447 47.23 106.92C48.29 120.22 59.66 119.13 69.65 120.89C71.7034 121.257 72.73 122.213 72.73 123.76C72.73 125.307 71.7034 126.26 69.65 126.62C59.66 128.38 48.29 127.29 47.23 140.59C46.79 146.063 45.9134 155.57 44.6 169.11C44.5667 169.442 44.4646 169.765 44.3 170.06C43.6934 171.133 42.8667 171.67 41.82 171.67C40.7667 171.67 39.9367 171.133 39.33 170.06C39.1655 169.765 39.0634 169.442 39.03 169.11C37.7167 155.57 36.84 146.063 36.4 140.59C35.34 127.29 23.97 128.38 13.98 126.62C11.9267 126.26 10.9 125.307 10.9 123.76C10.9 122.213 11.9267 121.26 13.98 120.9C23.97 119.14 35.34 120.23 36.4 106.93C36.84 101.457 37.7167 91.9468 39.03 78.4001C39.0647 78.072 39.1668 77.7523 39.33 77.4601C39.9367 76.3801 40.7634 75.8401 41.81 75.8401Z"/>
</mask>
<path d="M41.81 75.8401C42.8567 75.8401 43.6867 76.3801 44.3 77.4601C44.4633 77.7523 44.5653 78.072 44.6 78.4001C45.9134 91.9401 46.79 101.447 47.23 106.92C48.29 120.22 59.66 119.13 69.65 120.89C71.7034 121.257 72.73 122.213 72.73 123.76C72.73 125.307 71.7034 126.26 69.65 126.62C59.66 128.38 48.29 127.29 47.23 140.59C46.79 146.063 45.9134 155.57 44.6 169.11C44.5667 169.442 44.4646 169.765 44.3 170.06C43.6934 171.133 42.8667 171.67 41.82 171.67C40.7667 171.67 39.9367 171.133 39.33 170.06C39.1655 169.765 39.0634 169.442 39.03 169.11C37.7167 155.57 36.84 146.063 36.4 140.59C35.34 127.29 23.97 128.38 13.98 126.62C11.9267 126.26 10.9 125.307 10.9 123.76C10.9 122.213 11.9267 121.26 13.98 120.9C23.97 119.14 35.34 120.23 36.4 106.93C36.84 101.457 37.7167 91.9468 39.03 78.4001C39.0647 78.072 39.1668 77.7523 39.33 77.4601C39.9367 76.3801 40.7634 75.8401 41.81 75.8401Z" fill="#202020"/>
<path d="M41.81 75.8401C42.8567 75.8401 43.6867 76.3801 44.3 77.4601C44.4633 77.7523 44.5653 78.072 44.6 78.4001C45.9134 91.9401 46.79 101.447 47.23 106.92C48.29 120.22 59.66 119.13 69.65 120.89C71.7034 121.257 72.73 122.213 72.73 123.76C72.73 125.307 71.7034 126.26 69.65 126.62C59.66 128.38 48.29 127.29 47.23 140.59C46.79 146.063 45.9134 155.57 44.6 169.11C44.5667 169.442 44.4646 169.765 44.3 170.06C43.6934 171.133 42.8667 171.67 41.82 171.67C40.7667 171.67 39.9367 171.133 39.33 170.06C39.1655 169.765 39.0634 169.442 39.03 169.11C37.7167 155.57 36.84 146.063 36.4 140.59C35.34 127.29 23.97 128.38 13.98 126.62C11.9267 126.26 10.9 125.307 10.9 123.76C10.9 122.213 11.9267 121.26 13.98 120.9C23.97 119.14 35.34 120.23 36.4 106.93C36.84 101.457 37.7167 91.9468 39.03 78.4001C39.0647 78.072 39.1668 77.7523 39.33 77.4601C39.9367 76.3801 40.7634 75.8401 41.81 75.8401Z" stroke="#202020" stroke-width="3" mask="url(#path-4-outside-4_186_175)"/>
<mask id="path-5-outside-5_186_175" maskUnits="userSpaceOnUse" x="306.75" y="97.9299" width="40" height="60" fill="black">
<rect fill="white" x="306.75" y="97.9299" width="40" height="60"/>
<path d="M326.87 99.9299C327.817 99.9299 328.34 100.46 328.44 101.52C329.293 110.387 329.77 115.437 329.87 116.67C330.63 125.58 335.14 125.06 343.1 126.3C344.333 126.493 344.95 127.05 344.95 127.97C344.95 128.87 344.337 129.417 343.11 129.61C335.14 130.87 330.63 130.35 329.88 139.27C329.787 140.503 329.32 145.553 328.48 154.42C328.38 155.48 327.83 156.01 326.83 156.01C325.883 156.01 325.36 155.48 325.26 154.42C324.407 145.553 323.93 140.503 323.83 139.27C323.07 130.36 318.56 130.88 310.6 129.63C309.367 129.437 308.75 128.89 308.75 127.99C308.75 127.077 309.363 126.523 310.59 126.33C318.56 125.07 323.07 125.58 323.81 116.67C323.91 115.437 324.38 110.387 325.22 101.52C325.32 100.46 325.87 99.9299 326.87 99.9299Z"/>
</mask>
<path d="M326.87 99.9299C327.817 99.9299 328.34 100.46 328.44 101.52C329.293 110.387 329.77 115.437 329.87 116.67C330.63 125.58 335.14 125.06 343.1 126.3C344.333 126.493 344.95 127.05 344.95 127.97C344.95 128.87 344.337 129.417 343.11 129.61C335.14 130.87 330.63 130.35 329.88 139.27C329.787 140.503 329.32 145.553 328.48 154.42C328.38 155.48 327.83 156.01 326.83 156.01C325.883 156.01 325.36 155.48 325.26 154.42C324.407 145.553 323.93 140.503 323.83 139.27C323.07 130.36 318.56 130.88 310.6 129.63C309.367 129.437 308.75 128.89 308.75 127.99C308.75 127.077 309.363 126.523 310.59 126.33C318.56 125.07 323.07 125.58 323.81 116.67C323.91 115.437 324.38 110.387 325.22 101.52C325.32 100.46 325.87 99.9299 326.87 99.9299Z" fill="#202020"/>
<path d="M326.87 99.9299C327.817 99.9299 328.34 100.46 328.44 101.52C329.293 110.387 329.77 115.437 329.87 116.67C330.63 125.58 335.14 125.06 343.1 126.3C344.333 126.493 344.95 127.05 344.95 127.97C344.95 128.87 344.337 129.417 343.11 129.61C335.14 130.87 330.63 130.35 329.88 139.27C329.787 140.503 329.32 145.553 328.48 154.42C328.38 155.48 327.83 156.01 326.83 156.01C325.883 156.01 325.36 155.48 325.26 154.42C324.407 145.553 323.93 140.503 323.83 139.27C323.07 130.36 318.56 130.88 310.6 129.63C309.367 129.437 308.75 128.89 308.75 127.99C308.75 127.077 309.363 126.523 310.59 126.33C318.56 125.07 323.07 125.58 323.81 116.67C323.91 115.437 324.38 110.387 325.22 101.52C325.32 100.46 325.87 99.9299 326.87 99.9299Z" stroke="#202020" stroke-width="3" mask="url(#path-5-outside-5_186_175)"/>
<mask id="path-6-outside-6_186_175" maskUnits="userSpaceOnUse" x="249.46" y="115.79" width="58" height="84" fill="black">
<rect fill="white" x="249.46" y="115.79" width="58" height="84"/>
<path d="M278.28 117.79C279.807 117.79 280.693 119.137 280.94 121.83C281.76 130.73 282.413 137.68 282.9 142.68C284.02 154.04 291.59 154.05 300.8 154.98C303.68 155.267 305.12 156.173 305.12 157.7C305.12 159.227 303.68 160.137 300.8 160.43C291.59 161.36 284.02 161.38 282.91 172.74C282.423 177.74 281.777 184.69 280.97 193.59C280.723 196.283 279.833 197.63 278.3 197.63C276.767 197.63 275.877 196.283 275.63 193.59C274.817 184.69 274.167 177.74 273.68 172.74C272.56 161.38 264.99 161.37 255.78 160.44C252.9 160.153 251.46 159.247 251.46 157.72C251.46 156.193 252.9 155.283 255.78 154.99C264.99 154.06 272.56 154.04 273.67 142.68C274.157 137.68 274.803 130.73 275.61 121.83C275.857 119.137 276.747 117.79 278.28 117.79Z"/>
</mask>
<path d="M278.28 117.79C279.807 117.79 280.693 119.137 280.94 121.83C281.76 130.73 282.413 137.68 282.9 142.68C284.02 154.04 291.59 154.05 300.8 154.98C303.68 155.267 305.12 156.173 305.12 157.7C305.12 159.227 303.68 160.137 300.8 160.43C291.59 161.36 284.02 161.38 282.91 172.74C282.423 177.74 281.777 184.69 280.97 193.59C280.723 196.283 279.833 197.63 278.3 197.63C276.767 197.63 275.877 196.283 275.63 193.59C274.817 184.69 274.167 177.74 273.68 172.74C272.56 161.38 264.99 161.37 255.78 160.44C252.9 160.153 251.46 159.247 251.46 157.72C251.46 156.193 252.9 155.283 255.78 154.99C264.99 154.06 272.56 154.04 273.67 142.68C274.157 137.68 274.803 130.73 275.61 121.83C275.857 119.137 276.747 117.79 278.28 117.79Z" fill="#202020"/>
<path d="M278.28 117.79C279.807 117.79 280.693 119.137 280.94 121.83C281.76 130.73 282.413 137.68 282.9 142.68C284.02 154.04 291.59 154.05 300.8 154.98C303.68 155.267 305.12 156.173 305.12 157.7C305.12 159.227 303.68 160.137 300.8 160.43C291.59 161.36 284.02 161.38 282.91 172.74C282.423 177.74 281.777 184.69 280.97 193.59C280.723 196.283 279.833 197.63 278.3 197.63C276.767 197.63 275.877 196.283 275.63 193.59C274.817 184.69 274.167 177.74 273.68 172.74C272.56 161.38 264.99 161.37 255.78 160.44C252.9 160.153 251.46 159.247 251.46 157.72C251.46 156.193 252.9 155.283 255.78 154.99C264.99 154.06 272.56 154.04 273.67 142.68C274.157 137.68 274.803 130.73 275.61 121.83C275.857 119.137 276.747 117.79 278.28 117.79Z" stroke="#202020" stroke-width="3" mask="url(#path-6-outside-6_186_175)"/>
<mask id="path-7-outside-7_186_175" maskUnits="userSpaceOnUse" x="63.53" y="135.52" width="40" height="60" fill="black">
<rect fill="white" x="63.53" y="135.52" width="40" height="60"/>
<path d="M101.66 165.52C101.66 166.42 101.047 166.967 99.82 167.16C91.87 168.41 87.37 167.9 86.62 176.79C86.52 178.023 86.0467 183.067 85.2 191.92C85.1 192.973 84.5767 193.5 83.63 193.5C82.6367 193.5 82.09 192.973 81.99 191.92C81.1434 183.067 80.67 178.023 80.57 176.79C79.82 167.9 75.32 168.41 67.36 167.16C66.14 166.967 65.53 166.42 65.53 165.52C65.53 164.607 66.14 164.053 67.36 163.86C75.32 162.61 79.82 163.12 80.57 154.23C80.67 152.997 81.1434 147.953 81.99 139.1C82.09 138.047 82.6134 137.52 83.56 137.52C84.5534 137.52 85.1 138.047 85.2 139.1C86.0467 147.953 86.52 152.997 86.62 154.23C87.37 163.12 91.87 162.61 99.82 163.86C101.047 164.053 101.66 164.607 101.66 165.52Z"/>
</mask>
<path d="M101.66 165.52C101.66 166.42 101.047 166.967 99.82 167.16C91.87 168.41 87.37 167.9 86.62 176.79C86.52 178.023 86.0467 183.067 85.2 191.92C85.1 192.973 84.5767 193.5 83.63 193.5C82.6367 193.5 82.09 192.973 81.99 191.92C81.1434 183.067 80.67 178.023 80.57 176.79C79.82 167.9 75.32 168.41 67.36 167.16C66.14 166.967 65.53 166.42 65.53 165.52C65.53 164.607 66.14 164.053 67.36 163.86C75.32 162.61 79.82 163.12 80.57 154.23C80.67 152.997 81.1434 147.953 81.99 139.1C82.09 138.047 82.6134 137.52 83.56 137.52C84.5534 137.52 85.1 138.047 85.2 139.1C86.0467 147.953 86.52 152.997 86.62 154.23C87.37 163.12 91.87 162.61 99.82 163.86C101.047 164.053 101.66 164.607 101.66 165.52Z" fill="#202020"/>
<path d="M101.66 165.52C101.66 166.42 101.047 166.967 99.82 167.16C91.87 168.41 87.37 167.9 86.62 176.79C86.52 178.023 86.0467 183.067 85.2 191.92C85.1 192.973 84.5767 193.5 83.63 193.5C82.6367 193.5 82.09 192.973 81.99 191.92C81.1434 183.067 80.67 178.023 80.57 176.79C79.82 167.9 75.32 168.41 67.36 167.16C66.14 166.967 65.53 166.42 65.53 165.52C65.53 164.607 66.14 164.053 67.36 163.86C75.32 162.61 79.82 163.12 80.57 154.23C80.67 152.997 81.1434 147.953 81.99 139.1C82.09 138.047 82.6134 137.52 83.56 137.52C84.5534 137.52 85.1 138.047 85.2 139.1C86.0467 147.953 86.52 152.997 86.62 154.23C87.37 163.12 91.87 162.61 99.82 163.86C101.047 164.053 101.66 164.607 101.66 165.52Z" stroke="#202020" stroke-width="3" mask="url(#path-7-outside-7_186_175)"/>
<mask id="path-8-outside-8_186_175" maskUnits="userSpaceOnUse" x="0.25" y="170.86" width="29" height="42" fill="black">
<rect fill="white" x="0.25" y="170.86" width="29" height="42"/>
<path d="M14.6 172.86C15.2667 172.86 15.6267 173.17 15.68 173.79C16.0333 177.817 16.4467 181.907 16.92 186.06C17.47 190.92 23.21 190.22 26.39 191.1C26.81 191.22 27.02 191.537 27.02 192.05C27.02 192.523 26.81 192.82 26.39 192.94C23.22 193.82 17.47 193.13 16.93 198C16.4633 202.153 16.06 206.247 15.72 210.28C15.6667 210.893 15.32 211.2 14.68 211.2C14.0067 211.2 13.6433 210.893 13.59 210.28C13.2367 206.247 12.8233 202.153 12.35 198C11.8 193.14 6.06 193.84 2.88 192.96C2.46 192.847 2.25 192.55 2.25 192.07C2.25 191.557 2.46 191.24 2.88 191.12C6.06 190.24 11.8 190.93 12.34 186.07C12.8067 181.917 13.2133 177.823 13.56 173.79C13.6133 173.17 13.96 172.86 14.6 172.86Z"/>
</mask>
<path d="M14.6 172.86C15.2667 172.86 15.6267 173.17 15.68 173.79C16.0333 177.817 16.4467 181.907 16.92 186.06C17.47 190.92 23.21 190.22 26.39 191.1C26.81 191.22 27.02 191.537 27.02 192.05C27.02 192.523 26.81 192.82 26.39 192.94C23.22 193.82 17.47 193.13 16.93 198C16.4633 202.153 16.06 206.247 15.72 210.28C15.6667 210.893 15.32 211.2 14.68 211.2C14.0067 211.2 13.6433 210.893 13.59 210.28C13.2367 206.247 12.8233 202.153 12.35 198C11.8 193.14 6.06 193.84 2.88 192.96C2.46 192.847 2.25 192.55 2.25 192.07C2.25 191.557 2.46 191.24 2.88 191.12C6.06 190.24 11.8 190.93 12.34 186.07C12.8067 181.917 13.2133 177.823 13.56 173.79C13.6133 173.17 13.96 172.86 14.6 172.86Z" fill="#202020"/>
<path d="M14.6 172.86C15.2667 172.86 15.6267 173.17 15.68 173.79C16.0333 177.817 16.4467 181.907 16.92 186.06C17.47 190.92 23.21 190.22 26.39 191.1C26.81 191.22 27.02 191.537 27.02 192.05C27.02 192.523 26.81 192.82 26.39 192.94C23.22 193.82 17.47 193.13 16.93 198C16.4633 202.153 16.06 206.247 15.72 210.28C15.6667 210.893 15.32 211.2 14.68 211.2C14.0067 211.2 13.6433 210.893 13.59 210.28C13.2367 206.247 12.8233 202.153 12.35 198C11.8 193.14 6.06 193.84 2.88 192.96C2.46 192.847 2.25 192.55 2.25 192.07C2.25 191.557 2.46 191.24 2.88 191.12C6.06 190.24 11.8 190.93 12.34 186.07C12.8067 181.917 13.2133 177.823 13.56 173.79C13.6133 173.17 13.96 172.86 14.6 172.86Z" stroke="#202020" stroke-width="3" mask="url(#path-8-outside-8_186_175)"/>
<mask id="path-9-outside-9_186_175" maskUnits="userSpaceOnUse" x="26.1635" y="204.712" width="33" height="88" fill="black">
<rect fill="white" x="26.1635" y="204.712" width="33" height="88"/>
<path d="M55.78 290.01C55.7733 290.01 55.6767 290.063 55.49 290.17C55.4598 290.188 55.4245 290.198 55.3877 290.198C55.3508 290.198 55.3137 290.188 55.28 290.17C43.72 284.53 35.7433 275.607 31.35 263.4C24 242.97 29.42 221.32 47.04 208.29C47.66 207.837 48.2333 207.65 48.76 207.73C48.9872 207.766 49.2023 207.857 49.3852 207.997C49.5681 208.136 49.7128 208.318 49.8057 208.526C49.8986 208.734 49.9368 208.96 49.9165 209.185C49.8963 209.41 49.8183 209.625 49.69 209.81C32.42 234.78 35.05 267.28 56.74 287.84C56.9283 288.019 57.0567 288.252 57.1076 288.506C57.1585 288.761 57.1294 289.025 57.0243 289.263C56.9192 289.501 56.7432 289.7 56.5205 289.834C56.2977 289.967 56.0391 290.029 55.78 290.01Z"/>
</mask>
<path d="M55.78 290.01C55.7733 290.01 55.6767 290.063 55.49 290.17C55.4598 290.188 55.4245 290.198 55.3877 290.198C55.3508 290.198 55.3137 290.188 55.28 290.17C43.72 284.53 35.7433 275.607 31.35 263.4C24 242.97 29.42 221.32 47.04 208.29C47.66 207.837 48.2333 207.65 48.76 207.73C48.9872 207.766 49.2023 207.857 49.3852 207.997C49.5681 208.136 49.7128 208.318 49.8057 208.526C49.8986 208.734 49.9368 208.96 49.9165 209.185C49.8963 209.41 49.8183 209.625 49.69 209.81C32.42 234.78 35.05 267.28 56.74 287.84C56.9283 288.019 57.0567 288.252 57.1076 288.506C57.1585 288.761 57.1294 289.025 57.0243 289.263C56.9192 289.501 56.7432 289.7 56.5205 289.834C56.2977 289.967 56.0391 290.029 55.78 290.01Z" fill="#202020"/>
<path d="M55.78 290.01C55.7733 290.01 55.6767 290.063 55.49 290.17C55.4598 290.188 55.4245 290.198 55.3877 290.198C55.3508 290.198 55.3137 290.188 55.28 290.17C43.72 284.53 35.7433 275.607 31.35 263.4C24 242.97 29.42 221.32 47.04 208.29C47.66 207.837 48.2333 207.65 48.76 207.73C48.9872 207.766 49.2023 207.857 49.3852 207.997C49.5681 208.136 49.7128 208.318 49.8057 208.526C49.8986 208.734 49.9368 208.96 49.9165 209.185C49.8963 209.41 49.8183 209.625 49.69 209.81C32.42 234.78 35.05 267.28 56.74 287.84C56.9283 288.019 57.0567 288.252 57.1076 288.506C57.1585 288.761 57.1294 289.025 57.0243 289.263C56.9192 289.501 56.7432 289.7 56.5205 289.834C56.2977 289.967 56.0391 290.029 55.78 290.01Z" stroke="#202020" stroke-width="4" mask="url(#path-9-outside-9_186_175)"/>
<mask id="path-10-outside-10_186_175" maskUnits="userSpaceOnUse" x="294.51" y="204.792" width="33" height="88" fill="black">
<rect fill="white" x="294.51" y="204.792" width="33" height="88"/>
<path d="M297.84 289.94C297.584 289.954 297.329 289.89 297.111 289.756C296.892 289.622 296.72 289.424 296.616 289.189C296.513 288.954 296.484 288.694 296.533 288.442C296.582 288.19 296.706 287.959 296.89 287.78C318.54 267.26 321.17 234.82 303.94 209.89C303.811 209.704 303.732 209.489 303.711 209.264C303.69 209.039 303.727 208.811 303.819 208.603C303.911 208.395 304.055 208.213 304.237 208.074C304.419 207.936 304.634 207.845 304.86 207.81C305.387 207.73 305.96 207.917 306.58 208.37C324.17 221.38 329.57 242.99 322.23 263.38C317.843 275.567 309.88 284.473 298.34 290.1C298.306 290.118 298.269 290.128 298.232 290.128C298.195 290.128 298.16 290.118 298.13 290.1C297.943 289.993 297.847 289.94 297.84 289.94Z"/>
</mask>
<path d="M297.84 289.94C297.584 289.954 297.329 289.89 297.111 289.756C296.892 289.622 296.72 289.424 296.616 289.189C296.513 288.954 296.484 288.694 296.533 288.442C296.582 288.19 296.706 287.959 296.89 287.78C318.54 267.26 321.17 234.82 303.94 209.89C303.811 209.704 303.732 209.489 303.711 209.264C303.69 209.039 303.727 208.811 303.819 208.603C303.911 208.395 304.055 208.213 304.237 208.074C304.419 207.936 304.634 207.845 304.86 207.81C305.387 207.73 305.96 207.917 306.58 208.37C324.17 221.38 329.57 242.99 322.23 263.38C317.843 275.567 309.88 284.473 298.34 290.1C298.306 290.118 298.269 290.128 298.232 290.128C298.195 290.128 298.16 290.118 298.13 290.1C297.943 289.993 297.847 289.94 297.84 289.94Z" fill="#202020"/>
<path d="M297.84 289.94C297.584 289.954 297.329 289.89 297.111 289.756C296.892 289.622 296.72 289.424 296.616 289.189C296.513 288.954 296.484 288.694 296.533 288.442C296.582 288.19 296.706 287.959 296.89 287.78C318.54 267.26 321.17 234.82 303.94 209.89C303.811 209.704 303.732 209.489 303.711 209.264C303.69 209.039 303.727 208.811 303.819 208.603C303.911 208.395 304.055 208.213 304.237 208.074C304.419 207.936 304.634 207.845 304.86 207.81C305.387 207.73 305.96 207.917 306.58 208.37C324.17 221.38 329.57 242.99 322.23 263.38C317.843 275.567 309.88 284.473 298.34 290.1C298.306 290.118 298.269 290.128 298.232 290.128C298.195 290.128 298.16 290.118 298.13 290.1C297.943 289.993 297.847 289.94 297.84 289.94Z" stroke="#202020" stroke-width="4" mask="url(#path-10-outside-10_186_175)"/>
<mask id="path-11-outside-11_186_175" maskUnits="userSpaceOnUse" x="69.3633" y="275.989" width="92" height="62" fill="black">
<rect fill="white" x="69.3633" y="275.989" width="92" height="62"/>
<path d="M159.2 335.82C144.567 332.26 132.007 325.03 121.52 314.13C119.293 311.823 115.577 307.957 110.37 302.53C106.61 298.603 101.54 295.857 95.1599 294.29C89.2399 292.83 69.1699 288.96 71.5599 282.52C72.2933 280.527 73.4733 279.36 75.0999 279.02C86.9333 276.56 97.8933 278.5 107.98 284.84C117.29 290.69 121.93 298.94 127.97 309.19C133.757 319.037 141.89 326.8 152.37 332.48C154.54 333.66 157.12 334.32 159.29 335.6C159.315 335.615 159.334 335.638 159.343 335.665C159.353 335.693 159.352 335.722 159.341 335.749C159.33 335.776 159.309 335.798 159.284 335.811C159.258 335.824 159.228 335.827 159.2 335.82Z"/>
</mask>
<path d="M159.2 335.82C144.567 332.26 132.007 325.03 121.52 314.13C119.293 311.823 115.577 307.957 110.37 302.53C106.61 298.603 101.54 295.857 95.1599 294.29C89.2399 292.83 69.1699 288.96 71.5599 282.52C72.2933 280.527 73.4733 279.36 75.0999 279.02C86.9333 276.56 97.8933 278.5 107.98 284.84C117.29 290.69 121.93 298.94 127.97 309.19C133.757 319.037 141.89 326.8 152.37 332.48C154.54 333.66 157.12 334.32 159.29 335.6C159.315 335.615 159.334 335.638 159.343 335.665C159.353 335.693 159.352 335.722 159.341 335.749C159.33 335.776 159.309 335.798 159.284 335.811C159.258 335.824 159.228 335.827 159.2 335.82Z" fill="#202020"/>
<path d="M159.2 335.82C144.567 332.26 132.007 325.03 121.52 314.13C119.293 311.823 115.577 307.957 110.37 302.53C106.61 298.603 101.54 295.857 95.1599 294.29C89.2399 292.83 69.1699 288.96 71.5599 282.52C72.2933 280.527 73.4733 279.36 75.0999 279.02C86.9333 276.56 97.8933 278.5 107.98 284.84C117.29 290.69 121.93 298.94 127.97 309.19C133.757 319.037 141.89 326.8 152.37 332.48C154.54 333.66 157.12 334.32 159.29 335.6C159.315 335.615 159.334 335.638 159.343 335.665C159.353 335.693 159.352 335.722 159.341 335.749C159.33 335.776 159.309 335.798 159.284 335.811C159.258 335.824 159.228 335.827 159.2 335.82Z" stroke="#202020" stroke-width="4" mask="url(#path-11-outside-11_186_175)"/>
<mask id="path-12-outside-12_186_175" maskUnits="userSpaceOnUse" x="192.22" y="275.982" width="93" height="62" fill="black">
<rect fill="white" x="192.22" y="275.982" width="93" height="62"/>
<path d="M194.28 335.5C196.45 334.22 199.03 333.56 201.2 332.39C211.693 326.723 219.84 318.97 225.64 309.13C231.7 298.88 236.35 290.64 245.67 284.8C255.77 278.473 266.733 276.55 278.56 279.03C280.187 279.37 281.367 280.537 282.1 282.53C284.48 288.98 264.4 292.82 258.48 294.27C252.093 295.83 247.017 298.57 243.25 302.49C238.037 307.91 234.317 311.773 232.09 314.08C221.583 324.967 209.01 332.18 194.37 335.72C194.342 335.727 194.312 335.724 194.286 335.711C194.261 335.698 194.24 335.676 194.229 335.649C194.218 335.622 194.217 335.593 194.227 335.565C194.236 335.538 194.255 335.515 194.28 335.5Z"/>
</mask>
<path d="M194.28 335.5C196.45 334.22 199.03 333.56 201.2 332.39C211.693 326.723 219.84 318.97 225.64 309.13C231.7 298.88 236.35 290.64 245.67 284.8C255.77 278.473 266.733 276.55 278.56 279.03C280.187 279.37 281.367 280.537 282.1 282.53C284.48 288.98 264.4 292.82 258.48 294.27C252.093 295.83 247.017 298.57 243.25 302.49C238.037 307.91 234.317 311.773 232.09 314.08C221.583 324.967 209.01 332.18 194.37 335.72C194.342 335.727 194.312 335.724 194.286 335.711C194.261 335.698 194.24 335.676 194.229 335.649C194.218 335.622 194.217 335.593 194.227 335.565C194.236 335.538 194.255 335.515 194.28 335.5Z" fill="#202020"/>
<path d="M194.28 335.5C196.45 334.22 199.03 333.56 201.2 332.39C211.693 326.723 219.84 318.97 225.64 309.13C231.7 298.88 236.35 290.64 245.67 284.8C255.77 278.473 266.733 276.55 278.56 279.03C280.187 279.37 281.367 280.537 282.1 282.53C284.48 288.98 264.4 292.82 258.48 294.27C252.093 295.83 247.017 298.57 243.25 302.49C238.037 307.91 234.317 311.773 232.09 314.08C221.583 324.967 209.01 332.18 194.37 335.72C194.342 335.727 194.312 335.724 194.286 335.711C194.261 335.698 194.24 335.676 194.229 335.649C194.218 335.622 194.217 335.593 194.227 335.565C194.236 335.538 194.255 335.515 194.28 335.5Z" stroke="#202020" stroke-width="4" mask="url(#path-12-outside-12_186_175)"/>
</svg>
