<svg width="48" height="48" viewBox="0 0 48 48" fill="none" xmlns="http://www.w3.org/2000/svg">
<g clip-path="url(#clip0_407_1070)">
<path d="M24 48C37.2548 48 48 37.2548 48 24C48 10.7452 37.2548 0 24 0C10.7452 0 0 10.7452 0 24C0 37.2548 10.7452 48 24 48Z" fill="white"/>
<mask id="mask0_407_1070" style="mask-type:luminance" maskUnits="userSpaceOnUse" x="14" y="12" width="22" height="24">
<path d="M35.2004 12H14.4004V35.9515H35.2004V12Z" fill="white"/>
</mask>
<g mask="url(#mask0_407_1070)">
<mask id="mask1_407_1070" style="mask-type:luminance" maskUnits="userSpaceOnUse" x="14" y="12" width="22" height="24">
<path d="M14.4004 12H35.1711V35.9515H14.4004V12Z" fill="white"/>
</mask>
<g mask="url(#mask1_407_1070)">
<path fill-rule="evenodd" clip-rule="evenodd" d="M25.3765 20.4861C25.3765 19.3536 25.3781 18.221 25.3762 17.0884C25.3734 15.5103 25.3676 13.9323 25.3642 12.3542C25.3634 12.0223 25.3879 11.9994 25.7197 12C26.828 12.0019 27.9362 12.0041 29.0445 12.0062C29.0572 12.0062 29.0699 12.0061 29.0825 12.0063C29.4663 12.0117 29.4663 12.0117 29.4885 12.3901C29.6404 14.9796 31.6995 17.2539 34.2536 17.65C34.4785 17.6848 34.7054 17.7121 34.9324 17.7256C35.0962 17.7353 35.1716 17.7939 35.1711 17.9677C35.1672 19.1833 35.1677 20.3988 35.1705 21.6143C35.1711 21.7842 35.106 21.8556 34.9325 21.8481C33.0313 21.7663 31.2726 21.2442 29.6972 20.1493C29.6439 20.1122 29.5991 20.0307 29.5184 20.0782C29.4404 20.1241 29.4517 20.2103 29.4565 20.2856C29.4972 20.9276 29.4794 21.5702 29.4802 22.2125C29.4823 24.1276 29.4824 26.0428 29.4803 27.9579C29.4793 28.8315 29.4322 29.7028 29.1619 30.5406C28.2738 33.2937 26.4305 35.0261 23.6294 35.7113C22.3263 36.03 21.0184 36.0675 19.7393 35.6036C17.8184 34.9069 16.2415 33.7661 15.2824 31.9048C13.2829 28.0242 14.8325 23.5724 18.4232 21.6515C19.7758 20.9279 21.216 20.6638 22.7374 20.8258C22.8968 20.8428 22.9722 20.9042 22.9716 21.0771C22.9671 22.3308 22.9674 23.5846 22.9713 24.8383C22.9719 25.003 22.9263 25.0487 22.759 25.0078C20.6147 24.4842 18.545 26.0948 18.5098 28.3102C18.4817 30.0851 19.8868 31.6236 21.6753 31.776C23.424 31.9252 25.0271 30.6665 25.3144 28.9214C25.3507 28.7007 25.3631 28.4791 25.3632 28.2566C25.3641 25.7301 25.3638 23.2035 25.3638 20.677V20.4861C25.368 20.4861 25.3723 20.4861 25.3765 20.4861Z" fill="#2C5F96"/>
</g>
</g>
</g>
<defs>
<clipPath id="clip0_407_1070">
<rect width="48" height="48" fill="white"/>
</clipPath>
</defs>
</svg>
